<svg version="1.1" xmlns="http://www.w3.org/2000/svg" xmlns:xlink="http://www.w3.org/1999/xlink" width="30px" height="30px" viewBox="0,0,256,256"><g fill="#549c5f" fill-rule="nonzero" stroke="none" stroke-width="1" stroke-linecap="butt" stroke-linejoin="miter" stroke-miterlimit="10" stroke-dasharray="" stroke-dashoffset="0" font-family="none" font-weight="none" font-size="none" text-anchor="none" style="mix-blend-mode: normal"><g transform="scale(8.53333,8.53333)"><path d="M6.60156,3c-0.914,0 -1.60156,1 -1.60156,1c-5.235,0 -2.34677,8.35589 -3.88477,9.58789c0,0 0.94277,1.16601 3.88477,1.16601v0.99805c-0.813,2.118 -5,1.33505 -5,5.24805h8.02344c0.704,-0.426 2.97656,-1.60742 2.97656,-1.60742c-0.543,-0.58 -1.32633,-1.5828 -1.61133,-2.3418c-0.624,-0.313 -1.15167,-0.68083 -1.38867,-1.29883v-1.00976c0.19,0 0.75027,-0.04389 0.94727,-0.08789c-0.446,-0.687 -0.82227,-2.25286 -0.82227,-3.13086c0,-2.233 0.96164,-4.0697 2.55664,-5.2207c-0.481,-1.841 -1.54908,-3.30273 -4.08008,-3.30273zM23,3c-2.223,0 -3.58797,1.5292 -3.91797,3.5332c1.616,0.866 2.66797,2.73298 2.66797,5.08398c0,0.735 -0.17142,1.44223 -0.35742,1.99023c0.069,0.271 0.10742,0.5732 0.10742,0.9082c0,2.47 -2.5,4.93359 -2.5,4.93359c0.543,0.237 2.28023,1.11978 2.99023,1.55078h8.00977c0,-5.25 -4.263,-3.75 -5,-6v-1.5c0.332,-0.167 1.12266,-1.31684 1.22266,-2.21484c0.26,-0.02 0.77734,-0.65561 0.77734,-1.22461c0,-0.569 -0.18089,-0.80839 -0.33789,-0.90039c0,0 0.33789,-0.75116 0.33789,-1.66016c0,-1.821 -0.492,-3.5 -2,-3.5c0,0 -0.433,-1 -2,-1zM15,7c-2.692,0 -4.875,1.62144 -4.875,4.52344c0,1.227 0.6875,2.18359 0.6875,2.18359c0,0 -0.3125,0.15359 -0.3125,0.80859c0,1.273 0.81836,1.57813 0.81836,1.57813c0.114,1.008 1.68164,2.48438 1.68164,2.48438v1.68555c-0.842,2.526 -6,0.86133 -6,6.73633h16c0,-5.895 -5.158,-4.21033 -6,-6.73633v-1.68555c0,0 1.56764,-1.47638 1.68164,-2.48437c0,0 0.81836,-0.56513 0.81836,-1.57812c0,-0.702 -0.3125,-0.80859 -0.3125,-0.80859c0,0 0.5625,-1.06984 0.5625,-2.08984c0,-2.045 -1.026,-3.61719 -2.75,-3.61719c0,0 -0.732,-1 -2,-1z"></path></g></g></svg>