<svg version="1.1" xmlns="http://www.w3.org/2000/svg" xmlns:xlink="http://www.w3.org/1999/xlink" width="30px" height="30px" viewBox="0,0,256,256"><g fill="#549c5f" fill-rule="nonzero" stroke="none" stroke-width="1" stroke-linecap="butt" stroke-linejoin="miter" stroke-miterlimit="10" stroke-dasharray="" stroke-dashoffset="0" font-family="none" font-weight="none" font-size="none" text-anchor="none" style="mix-blend-mode: normal"><g transform="scale(8.53333,8.53333)"><path d="M15,3c-0.325,0 -0.62744,0.08566 -0.89844,0.22266h-0.01758l-9.45898,4.85352c-0.366,0.148 -0.625,0.50483 -0.625,0.92383c0,0.416 0.25519,0.77283 0.61719,0.92383v0.01953l9.47461,4.83789l0.00781,-0.00391c0.272,0.138 0.57439,0.22266 0.90039,0.22266c0.326,0 0.62839,-0.08466 0.90039,-0.22266l0.00781,0.00391l9.47461,-4.83789v-0.01953c0.362,-0.151 0.61719,-0.50783 0.61719,-0.92383c0,-0.419 -0.259,-0.77583 -0.625,-0.92383l-9.45898,-4.85352h-0.01758c-0.271,-0.137 -0.57344,-0.22266 -0.89844,-0.22266zM6.47656,13.12695l-1.85156,0.94922c-0.366,0.148 -0.625,0.50483 -0.625,0.92383c0,0.416 0.25519,0.77283 0.61719,0.92383v0.01953l9.47461,4.83789l0.00781,-0.00391c0.272,0.138 0.57439,0.22266 0.90039,0.22266c0.326,0 0.62839,-0.08466 0.90039,-0.22266l0.00781,0.00391l9.47461,-4.83789v-0.01953c0.362,-0.151 0.61719,-0.50783 0.61719,-0.92383c0,-0.419 -0.259,-0.77583 -0.625,-0.92383l-1.85156,-0.94922c-2.905,1.487 -6.87002,3.51034 -6.91602,3.52734c-0.515,0.23 -1.05442,0.3457 -1.60742,0.3457c-0.555,0 -1.09628,-0.11666 -1.61328,-0.34766c-0.044,-0.016 -4.00416,-2.03739 -6.91016,-3.52539zM6.47656,19.12695l-1.85156,0.94922c-0.366,0.148 -0.625,0.50483 -0.625,0.92383c0,0.416 0.25519,0.77283 0.61719,0.92383v0.01953l9.47461,4.83789l0.00781,-0.00391c0.272,0.138 0.57439,0.22266 0.90039,0.22266c0.326,0 0.62839,-0.08466 0.90039,-0.22266l0.00781,0.00391l9.47461,-4.83789v-0.01953c0.362,-0.151 0.61719,-0.50783 0.61719,-0.92383c0,-0.419 -0.259,-0.77583 -0.625,-0.92383l-1.85156,-0.94922c-2.905,1.487 -6.87002,3.51034 -6.91602,3.52734c-0.515,0.23 -1.05442,0.3457 -1.60742,0.3457c-0.555,0 -1.09628,-0.11666 -1.61328,-0.34766c-0.044,-0.016 -4.00416,-2.03739 -6.91016,-3.52539z"></path></g></g></svg>