<svg version="1.1" xmlns="http://www.w3.org/2000/svg" xmlns:xlink="http://www.w3.org/1999/xlink" width="30px" height="30px" viewBox="0,0,256,256"><g fill="#549c5f" fill-rule="nonzero" stroke="none" stroke-width="1" stroke-linecap="butt" stroke-linejoin="miter" stroke-miterlimit="10" stroke-dasharray="" stroke-dashoffset="0" font-family="none" font-weight="none" font-size="none" text-anchor="none" style="mix-blend-mode: normal"><g transform="scale(8.53333,8.53333)"><path d="M5,2v21h20v-21l-2,1l-2,-1l-2,1l-2,-1l-2,1l-2,-1l-2,1l-2,-1l-2,1zM25,23v2h-20v-2c-1.105,0 -2,0.895 -2,2c0,1.105 0.895,2 2,2h20c1.105,0 2,-0.895 2,-2c0,-1.105 -0.895,-2 -2,-2zM10,7h10c0.552,0 1,0.448 1,1c0,0.552 -0.448,1 -1,1h-10c-0.552,0 -1,-0.448 -1,-1c0,-0.552 0.448,-1 1,-1zM10,13h6c0.552,0 1,0.448 1,1c0,0.552 -0.448,1 -1,1h-6c-0.552,0 -1,-0.448 -1,-1c0,-0.552 0.448,-1 1,-1zM20,13c0.552,0 1,0.448 1,1c0,0.552 -0.448,1 -1,1c-0.552,0 -1,-0.448 -1,-1c0,-0.552 0.448,-1 1,-1zM10,17h4c0.552,0 1,0.448 1,1c0,0.552 -0.448,1 -1,1h-4c-0.552,0 -1,-0.448 -1,-1c0,-0.552 0.448,-1 1,-1zM20,17c0.552,0 1,0.448 1,1c0,0.552 -0.448,1 -1,1c-0.552,0 -1,-0.448 -1,-1c0,-0.552 0.448,-1 1,-1z"></path></g></g></svg>