<svg version="1.1" xmlns="http://www.w3.org/2000/svg" xmlns:xlink="http://www.w3.org/1999/xlink" width="30px" height="30px" viewBox="0,0,256,256"><g fill="#549c5f" fill-rule="nonzero" stroke="none" stroke-width="1" stroke-linecap="butt" stroke-linejoin="miter" stroke-miterlimit="10" stroke-dasharray="" stroke-dashoffset="0" font-family="none" font-weight="none" font-size="none" text-anchor="none" style="mix-blend-mode: normal"><g transform="scale(8.53333,8.53333)"><path d="M15,3c-4.602,0 -9.38867,1.03711 -9.38867,1.03711l-0.00391,0.00391c-0.93391,0.18695 -1.60642,1.00655 -1.60742,1.95898v6c0,10.398 10.02148,14.74414 10.02148,14.74414c0.29886,0.16771 0.63581,0.25582 0.97852,0.25586c0.34138,-0.00071 0.6769,-0.08879 0.97461,-0.25586h0.00391c0.001,0 10.02148,-4.34614 10.02148,-14.74414v-6c0.00049,-0.95511 -0.67443,-1.77728 -1.61133,-1.96289c0,0 -4.78667,-1.03711 -9.38867,-1.03711zM21,9c0.25575,0 0.51153,0.09747 0.70703,0.29297c0.391,0.391 0.391,1.02306 0,1.41406l-7.56055,7.56055c-0.188,0.188 -0.44203,0.29297 -0.70703,0.29297c-0.265,0 -0.52003,-0.10497 -0.70703,-0.29297l-3.45313,-3.45312c-0.391,-0.391 -0.391,-1.02306 0,-1.41406c0.391,-0.391 1.02306,-0.391 1.41406,0l2.74609,2.74609l6.85352,-6.85352c0.1955,-0.1955 0.45128,-0.29297 0.70703,-0.29297z"></path></g></g></svg>