<svg version="1.1" xmlns="http://www.w3.org/2000/svg" xmlns:xlink="http://www.w3.org/1999/xlink" width="30px" height="30px" viewBox="0,0,256,256"><g fill="#549c5f" fill-rule="nonzero" stroke="none" stroke-width="1" stroke-linecap="butt" stroke-linejoin="miter" stroke-miterlimit="10" stroke-dasharray="" stroke-dashoffset="0" font-family="none" font-weight="none" font-size="none" text-anchor="none" style="mix-blend-mode: normal"><g transform="scale(8.53333,8.53333)"><path d="M27,1l-18,12l5,8l3,-3l3,-3l3,-3l3,-3l3,-3zM26,9h0.01953l-3.01953,3h0.01953l-3.01953,3h0.01953l-3.01953,3h0.01953l-3.01953,3h3l0.04297,-3h2.95703l0.04297,-3h2.95703l0.04297,-3h2.95703l0.04297,-3h2.95703l0.04297,-3.02344zM7.00391,13.9375l-4.63672,2.99023c-1.326,0.81 -1.73723,2.716 -0.99023,3.875l3.9082,7.06055c0.632,1.12 2.0772,1.4763 3.1582,0.7793l2.54297,-1.63867c0.498,-0.321 1.29297,-1.24422 1.41797,-1.82422l0.5957,-2.17969z"></path></g></g></svg>