<svg version="1.1" xmlns="http://www.w3.org/2000/svg" xmlns:xlink="http://www.w3.org/1999/xlink" width="30px" height="30px" viewBox="0,0,256,256"><g fill="#549c5f" fill-rule="nonzero" stroke="none" stroke-width="1" stroke-linecap="butt" stroke-linejoin="miter" stroke-miterlimit="10" stroke-dasharray="" stroke-dashoffset="0" font-family="none" font-weight="none" font-size="none" text-anchor="none" style="mix-blend-mode: normal"><g transform="scale(8.53333,8.53333)"><path d="M15,1c-0.88492,0 -1.67163,0.39067 -2.2207,1h-2.77734c-0.707,0 -1.19269,0.71509 -0.92969,1.37109l0.92773,2.62891h10l0.92773,-2.62891c0.263,-0.656 -0.22269,-1.37109 -0.92969,-1.37109h-2.77734c-0.54908,-0.60933 -1.33579,-1 -2.2207,-1zM10,8c0,0 -7,6 -7,13c0,4 3,6 5,6h7h7c2,0 5,-2 5,-6c0,-7 -7,-13 -7,-13zM12,12h4.17188c2.058,0 3.46484,1.37803 3.46484,3.45703c0,2.058 -1.46136,3.54297 -3.56836,3.54297h-2.06836v1h2v1h-2v2h-2v-2h-2v-1h2v-1h-2v-1h2zM14,13.71875v3.47852h1.61133c1.199,0 1.89844,-0.60942 1.89844,-1.73242c-0.001,-1.137 -0.68658,-1.74609 -1.89258,-1.74609z"></path></g></g></svg>