<svg version="1.1" xmlns="http://www.w3.org/2000/svg" xmlns:xlink="http://www.w3.org/1999/xlink" width="30px" height="30px" viewBox="0,0,256,256"><g fill="#549c5f" fill-rule="nonzero" stroke="none" stroke-width="1" stroke-linecap="butt" stroke-linejoin="miter" stroke-miterlimit="10" stroke-dasharray="" stroke-dashoffset="0" font-family="none" font-weight="none" font-size="none" text-anchor="none" style="mix-blend-mode: normal"><g transform="scale(8.53333,8.53333)"><path d="M6,4c-1.105,0 -2,0.895 -2,2v18c0,1.105 0.895,2 2,2h18c1.105,0 2,-0.895 2,-2v-18c0,-1.105 -0.895,-2 -2,-2zM6,6h18v4h-18zM10.63867,14.49609h1.79102v7.04688h-1.79102v-5.42969h-0.09375l-1.69922,1.14648v-1.54297zM17.83984,14.49805h2.48438v4.50781h0.87891v1.39453h-0.87891v1.14453h-1.69336v-1.14453h-3.45703v-1.49805c0.64,-1.226 1.45002,-2.5593 2.66602,-4.4043zM18.58594,15.77734c-0.601,0.928 -1.07423,1.72813 -1.86523,3.20313v0.08789h1.95313v-3.29102z"></path></g></g></svg>