<svg version="1.1" xmlns="http://www.w3.org/2000/svg" xmlns:xlink="http://www.w3.org/1999/xlink" width="30px" height="30px" viewBox="0,0,256,256"><g fill="#549c5f" fill-rule="nonzero" stroke="none" stroke-width="1" stroke-linecap="butt" stroke-linejoin="miter" stroke-miterlimit="10" stroke-dasharray="" stroke-dashoffset="0" font-family="none" font-weight="none" font-size="none" text-anchor="none" style="mix-blend-mode: normal"><g transform="scale(8.53333,8.53333)"><path d="M15.00195,2c-0.47625,0 -0.95342,0.23227 -1.23242,0.69727l-0.54297,0.90625c-0.234,0.39 -0.61864,0.65344 -1.05664,0.77344c-0.005,0.001 -0.01062,0.00291 -0.01562,0.00391c-0.443,0.122 -0.91245,0.08433 -1.31445,-0.13867l-0.92578,-0.51172c-0.948,-0.527 -2.11481,0.14647 -2.13281,1.23047l-0.01758,1.07031c-0.008,0.453 -0.2093,0.87336 -0.5293,1.19336l-0.00977,0.00977c-0.32,0.321 -0.74036,0.5223 -1.19336,0.5293l-1.06836,0.01758c-1.085,0.019 -1.75942,1.18481 -1.23242,2.13281l0.51367,0.92773c0.221,0.399 0.25772,0.86664 0.13672,1.30664c-0.002,0.008 -0.00481,0.01544 -0.00781,0.02344c-0.119,0.435 -0.37863,0.81878 -0.76563,1.05078l-0.91016,0.54492c-0.93,0.558 -0.93,1.90589 0,2.46289l0.91016,0.54492c0.387,0.232 0.64763,0.61578 0.76563,1.05078c0.002,0.008 0.00481,0.01544 0.00781,0.02344c0.121,0.44 0.08428,0.90764 -0.13672,1.30664l-0.51367,0.92969c-0.526,0.948 0.14842,2.11481 1.23242,2.13281l1.06836,0.01758c0.453,0.008 0.87336,0.2093 1.19336,0.5293l0.00977,0.00977c0.321,0.32 0.5223,0.74036 0.5293,1.19336l0.01758,1.06836c0.018,1.084 1.18481,1.75842 2.13281,1.23242l0.92773,-0.51562c0.398,-0.221 0.86664,-0.25772 1.30664,-0.13672c0.008,0.002 0.01544,0.00481 0.02344,0.00781c0.435,0.119 0.81878,0.38058 1.05078,0.76758l0.54492,0.9082c0.558,0.93 1.90489,0.93 2.46289,0l0.54492,-0.9082c0.232,-0.387 0.61383,-0.64958 1.04883,-0.76758c0.008,-0.002 0.01739,-0.00481 0.02539,-0.00781c0.439,-0.121 0.90569,-0.08428 1.30469,0.13672l0.92773,0.51563c0.948,0.526 2.11481,-0.14842 2.13281,-1.23242l0.01758,-1.06836c0.008,-0.453 0.2093,-0.87336 0.5293,-1.19336l0.00977,-0.00977c0.32,-0.321 0.74036,-0.5223 1.19336,-0.5293l1.07031,-0.01758c1.084,-0.018 1.75842,-1.18481 1.23242,-2.13281l-0.51562,-0.92773c-0.221,-0.399 -0.25772,-0.86664 -0.13672,-1.30664c0.002,-0.008 0.00481,-0.01544 0.00781,-0.02344c0.119,-0.435 0.38058,-0.81878 0.76758,-1.05078l0.9082,-0.54492c0.933,-0.558 0.93291,-1.90684 0.00391,-2.46484l-0.9082,-0.54492c-0.387,-0.232 -0.64958,-0.61383 -0.76758,-1.04883c-0.002,-0.008 -0.00481,-0.01739 -0.00781,-0.02539c-0.121,-0.439 -0.08428,-0.90569 0.13672,-1.30469l0.51563,-0.92773c0.526,-0.948 -0.14842,-2.11481 -1.23242,-2.13281l-1.07031,-0.01758c-0.453,-0.008 -0.87336,-0.2093 -1.19336,-0.5293l-0.00977,-0.00977c-0.321,-0.32 -0.5223,-0.74036 -0.5293,-1.19336l-0.01758,-1.07031c-0.019,-1.086 -1.18481,-1.75942 -2.13281,-1.23242l-0.92773,0.51367c-0.398,0.221 -0.86664,0.25772 -1.30664,0.13672c-0.008,-0.002 -0.01544,-0.00481 -0.02344,-0.00781c-0.435,-0.119 -0.81878,-0.37863 -1.05078,-0.76563l-0.54492,-0.91016c-0.279,-0.465 -0.75422,-0.69727 -1.23047,-0.69727zM11.59961,9.43555c1.573,0 2.59961,1.08023 2.59961,2.74023c0,1.653 -1.02661,2.74024 -2.59961,2.74024c-1.564,0 -2.59961,-1.08724 -2.59961,-2.74023c0,-1.653 1.02861,-2.74023 2.59961,-2.74023zM17.25586,9.70117h2.44336l-4.04687,5.58789l-2.83398,5.00977h-2.45312l3.98242,-5.56055zM11.59961,11.01563c-0.448,0 -0.71875,0.4273 -0.71875,1.1543c0,0.72 0.27075,1.15234 0.71875,1.15234c0.441,0 0.71289,-0.43334 0.71289,-1.15234c0,-0.734 -0.25689,-1.1543 -0.71289,-1.1543zM18.4082,15.08398c1.564,0 2.5918,1.08042 2.5918,2.73242c0,1.661 -1.0278,2.74609 -2.5918,2.74609c-1.564,0 -2.5918,-1.08609 -2.5918,-2.74609c0,-1.652 1.0278,-2.73242 2.5918,-2.73242zM18.4082,16.66406c-0.448,0 -0.7207,0.42534 -0.7207,1.15234c0,0.72 0.2727,1.1543 0.7207,1.1543c0.441,0 0.71094,-0.4343 0.71094,-1.1543c0,-0.735 -0.26394,-1.15234 -0.71094,-1.15234z"></path></g></g></svg>