<svg xmlns="http://www.w3.org/2000/svg" xmlns:xlink="http://www.w3.org/1999/xlink" viewBox="0,0,256,256" width="48px" height="48px" fill-rule="nonzero"><defs><linearGradient x1="35.454" y1="-1.766" x2="5.348" y2="80.951" gradientUnits="userSpaceOnUse" id="color-1"><stop offset="0" stop-color="#549c5f"></stop><stop offset="1" stop-color="#262626" stop-opacity="0.8"></stop></linearGradient><linearGradient x1="9.233" y1="-6.572" x2="35.197" y2="64.765" gradientUnits="userSpaceOnUse" id="color-2"><stop offset="0" stop-color="#549c5f"></stop><stop offset="1" stop-color="#262626" stop-opacity="0.8"></stop></linearGradient><linearGradient x1="27.503" y1="-16.594" x2="40.509" y2="19.137" gradientUnits="userSpaceOnUse" id="color-3"><stop offset="0" stop-color="#549c5f"></stop><stop offset="1" stop-color="#262626" stop-opacity="0.8"></stop></linearGradient><linearGradient x1="30.287" y1="-17.627" x2="21.732" y2="30.89" gradientUnits="userSpaceOnUse" id="color-4"><stop offset="0" stop-color="#549c5f"></stop><stop offset="1" stop-color="#262626" stop-opacity="0.8"></stop></linearGradient></defs><g fill="none" fill-rule="nonzero" stroke="none" stroke-width="1" stroke-linecap="butt" stroke-linejoin="miter" stroke-miterlimit="10" stroke-dasharray="" stroke-dashoffset="0" font-family="none" font-weight="none" font-size="none" text-anchor="none" style="mix-blend-mode: normal"><g transform="scale(5.33333,5.33333)"><path d="M42,21.35v15.65c0,3.31 -2.69,6 -6,6h-30v-21.65c0.49,-0.08 0.98,-0.25 1.43,-0.53l16.57,-10.13l16.57,10.13c0.45,0.28 0.94,0.45 1.43,0.53z" fill="url(#color-1)"></path><path d="M30,43h-12v-15c0,-1.657 1.343,-3 3,-3h9z" fill="url(#color-2)"></path><path d="M39,4v9.17l-6,-3.67v-3.5c0,-1.1 0.9,-2 2,-2z" fill="url(#color-3)"></path><path d="M24,4l-22.963,14.029l0.893,1.46c1.152,1.884 3.613,2.477 5.498,1.326l16.572,-10.125l16.572,10.125c1.884,1.151 4.345,0.558 5.498,-1.326l0.893,-1.46z" fill="url(#color-4)"></path></g></g></svg>