<svg version="1.1" xmlns="http://www.w3.org/2000/svg" xmlns:xlink="http://www.w3.org/1999/xlink" width="48px" height="48px" viewBox="0,0,256,256"><g fill="none" fill-rule="nonzero" stroke="#ffffff" stroke-width="3" stroke-linecap="round" stroke-linejoin="round" stroke-miterlimit="10" stroke-dasharray="" stroke-dashoffset="0" font-family="none" font-weight="none" font-size="none" text-anchor="none" style="mix-blend-mode: normal"><g transform="scale(5.33333,5.33333)"><path d="M16.4,13.2l6.9,-6.2c0.4,-0.3 1,-0.3 1.3,0l18.4,16.4"></path><path d="M5,23.4l7.2,-6.4"></path><path d="M19.5,36v-6.6c0,-0.6 0.4,-1 1,-1h7c0.6,0 1,0.4 1,1v12.2"></path><path d="M9.5,19.3v20.3c0,1.1 0.9,2 2,2h25c1.1,0 2,-0.9 2,-2v-13.7"></path><path d="M32.5,14v-3.5c0,-0.6 0.4,-1 1,-1h4c0.6,0 1,0.4 1,1v7.9"></path></g></g></svg>